<svg xmlns="http://www.w3.org/2000/svg" aria-hidden="true" style="position:absolute;width:0;height:0;overflow:hidden">
  <defs>
    <symbol id="icon-menu-hamburger" viewBox="0 0 47 32">
      <path stroke-linejoin="round" stroke-linecap="round" stroke-miterlimit="4" stroke-width="4.3636" d="M1.961 29.154h42.965M1.961 15.615h42.965M1.961 2.077h42.965"></path>
    </symbol>
    <symbol id="icon-close-button" viewBox="0 0 32 32">
      <path fill="#828282" style="fill: var(--color1, #828282)" d="M3.738 0l26.928 26.928-3.738 3.738-26.928-26.928 3.738-3.738z"></path>
      <path fill="#828282" style="fill: var(--color1, #828282)" d="M1.157 27.209l26.928-26.928 3.738 3.738-26.928 26.928-3.738-3.738z"></path>
    </symbol>
    <symbol id="icon-star" viewBox="0 0 32 32">
      <path fill="#e5e5e5" style="fill: var(--color1, #e5e5e5)" d="M14.436 1.849c0.457-1.402 2.441-1.402 2.898 0l2.668 8.19c0.204 0.627 0.789 1.052 1.449 1.052h8.626c1.477 0 2.090 1.891 0.894 2.758l-6.971 5.051c-0.535 0.388-0.76 1.077-0.555 1.706l2.665 8.178c0.457 1.403-1.148 2.572-2.343 1.706l-6.988-5.063c-0.533-0.386-1.255-0.386-1.788 0l-6.988 5.063c-1.195 0.866-2.8-0.303-2.343-1.706l2.665-8.178c0.205-0.629-0.019-1.318-0.555-1.706l-6.971-5.051c-1.196-0.867-0.583-2.758 0.894-2.758h8.626c0.66 0 1.244-0.425 1.449-1.052l2.668-8.19z"></path>
    </symbol>

    <symbol id="icon-css" viewBox="0 0 28 32">
      <path fill="#1b73ba" style="fill: var(--color1, #1b73ba)" d="M2.301 28.69l-2.348-28.69 28.036 0.058-2.482 28.633-11.43 3.31z"></path>
      <path fill="#1c88c7" style="fill: var(--color2, #1c88c7)" d="M14.077 29.229v-26.497l11.546 0.038-2.059 23.707z"></path>
      <path fill="#fff" style="fill: var(--color3, #fff)" d="M22.755 6.119h-17.761l0.481 3.463h8.428l-8.293 3.56 0.481 3.348h12.219l-0.443 4.676-4.137 0.808-3.752-0.962-0.289-2.656h-3.444l0.462 5.523 7.389 2.059 7.081-2.251 0.904-10.795h-7.486l8.159-3.387z"></path>
    </symbol>
    <symbol id="icon-javascript" viewBox="0 0 28 32">
      <path fill="#e9ca32" style="fill: var(--color4, #e9ca32)" d="M2.301 28.69l-2.348-28.69 28.036 0.058-2.482 28.633-11.43 3.31z"></path>
      <path fill="#ffde25" style="fill: var(--color5, #ffde25)" d="M14.077 29.229v-26.497l11.545 0.038-2.059 23.707z"></path>
      <path fill="#fff" style="fill: var(--color3, #fff)" d="M12.841 5.879h-3.052v17.636l-2.374-0.452v-2.374l-2.826-0.452v5.313l8.253 2.148zM15.13 5.879h8.45l-0.565 3.38h-4.659v5.547h4.659l-0.565 11.196-7.319 1.696v-3.505l4.945-1.696 0.286-4.635-5.231 0.757z"></path>
    </symbol>
    <symbol id="icon-react" viewBox="0 0 28 32">
      <path fill="#61dafb" style="fill: var(--color6, #61dafb)" d="M28.083 16.003c0-1.86-2.33-3.623-5.902-4.717 0.824-3.641 0.458-6.537-1.156-7.464-0.372-0.218-0.807-0.321-1.282-0.321v1.276c0.263 0 0.475 0.052 0.653 0.149 0.779 0.447 1.116 2.147 0.853 4.333-0.063 0.538-0.166 1.105-0.292 1.683-1.122-0.275-2.347-0.487-3.635-0.624-0.773-1.059-1.574-2.021-2.381-2.862 1.866-1.734 3.618-2.685 4.808-2.685v-1.276c-1.574 0-3.635 1.122-5.719 3.068-2.084-1.935-4.144-3.045-5.719-3.045v1.276c1.185 0 2.942 0.944 4.808 2.667-0.801 0.841-1.603 1.797-2.364 2.856-1.294 0.137-2.519 0.349-3.641 0.63-0.132-0.572-0.229-1.128-0.298-1.66-0.269-2.187 0.063-3.887 0.836-4.339 0.172-0.103 0.395-0.149 0.658-0.149v-1.276c-0.481 0-0.916 0.103-1.294 0.321-1.609 0.927-1.969 3.818-1.139 7.447-3.561 1.099-5.879 2.856-5.879 4.711 0 1.86 2.33 3.623 5.902 4.717-0.824 3.641-0.458 6.537 1.156 7.464 0.372 0.218 0.807 0.321 1.288 0.321 1.574 0 3.635-1.122 5.719-3.068 2.084 1.935 4.144 3.045 5.719 3.045 0.481 0 0.916-0.103 1.294-0.321 1.609-0.927 1.969-3.818 1.139-7.447 3.549-1.093 5.867-2.856 5.867-4.711zM20.63 12.185c-0.212 0.738-0.475 1.5-0.773 2.261-0.235-0.458-0.481-0.916-0.75-1.374-0.263-0.458-0.544-0.904-0.824-1.339 0.813 0.12 1.597 0.269 2.347 0.452zM18.009 18.281c-0.447 0.773-0.904 1.505-1.38 2.187-0.853 0.074-1.717 0.114-2.587 0.114-0.864 0-1.729-0.040-2.576-0.109-0.475-0.681-0.939-1.408-1.385-2.175-0.435-0.75-0.83-1.511-1.191-2.278 0.355-0.767 0.756-1.534 1.185-2.284 0.447-0.773 0.904-1.505 1.38-2.187 0.853-0.074 1.717-0.114 2.587-0.114 0.864 0 1.729 0.040 2.576 0.109 0.475 0.681 0.939 1.408 1.385 2.175 0.435 0.75 0.83 1.511 1.191 2.278-0.361 0.767-0.756 1.534-1.185 2.284zM19.857 17.537c0.309 0.767 0.572 1.534 0.79 2.278-0.75 0.183-1.54 0.338-2.358 0.458 0.28-0.441 0.561-0.893 0.824-1.357 0.263-0.458 0.509-0.922 0.744-1.38zM14.053 23.645c-0.532-0.55-1.065-1.162-1.591-1.832 0.515 0.023 1.042 0.040 1.574 0.040 0.538 0 1.070-0.011 1.591-0.040-0.515 0.67-1.048 1.282-1.574 1.832zM9.794 20.273c-0.813-0.12-1.597-0.269-2.347-0.452 0.212-0.738 0.475-1.5 0.773-2.261 0.235 0.458 0.481 0.916 0.75 1.374s0.544 0.904 0.824 1.339zM14.024 8.361c0.532 0.55 1.065 1.162 1.591 1.832-0.515-0.023-1.042-0.040-1.574-0.040-0.538 0-1.070 0.011-1.591 0.040 0.515-0.67 1.048-1.282 1.574-1.832zM9.788 11.733c-0.28 0.441-0.561 0.893-0.824 1.357-0.263 0.458-0.509 0.916-0.744 1.374-0.309-0.767-0.572-1.534-0.79-2.278 0.75-0.177 1.54-0.332 2.358-0.452zM4.608 18.899c-2.026-0.864-3.337-1.998-3.337-2.896s1.311-2.038 3.337-2.896c0.492-0.212 1.030-0.401 1.586-0.578 0.326 1.122 0.756 2.29 1.288 3.486-0.527 1.191-0.95 2.353-1.271 3.469-0.567-0.177-1.105-0.372-1.603-0.584zM7.688 27.079c-0.779-0.447-1.116-2.147-0.853-4.333 0.063-0.538 0.166-1.105 0.292-1.683 1.122 0.275 2.347 0.487 3.635 0.624 0.773 1.059 1.574 2.021 2.381 2.862-1.866 1.734-3.618 2.685-4.808 2.685-0.258-0.006-0.475-0.057-0.647-0.155zM21.266 22.717c0.269 2.187-0.063 3.887-0.836 4.339-0.172 0.103-0.395 0.149-0.658 0.149-1.185 0-2.942-0.945-4.808-2.668 0.801-0.841 1.603-1.797 2.364-2.856 1.294-0.137 2.519-0.349 3.641-0.63 0.132 0.578 0.235 1.133 0.298 1.666zM23.469 18.899c-0.492 0.212-1.030 0.401-1.586 0.578-0.326-1.122-0.756-2.29-1.288-3.486 0.527-1.191 0.95-2.353 1.271-3.469 0.567 0.177 1.105 0.372 1.609 0.584 2.026 0.864 3.337 1.998 3.337 2.896-0.006 0.899-1.317 2.038-3.343 2.896z"></path>
      <path fill="#61dafb" style="fill: var(--color6, #61dafb)" d="M16.652 16.003c0 1.445-1.171 2.616-2.616 2.616s-2.616-1.171-2.616-2.616c0-1.445 1.171-2.616 2.616-2.616s2.616 1.171 2.616 2.616z"></path>
    </symbol>
    <symbol id="icon-html" viewBox="0 0 28 32">
      <path fill="#e34f26" style="fill: var(--color7, #e34f26)" d="M2.301 28.69l-2.348-28.69 28.036 0.058-2.482 28.633-11.43 3.31z"></path>
      <path fill="#ef652a" style="fill: var(--color8, #ef652a)" d="M14.077 29.229v-26.497l11.545 0.038-2.059 23.707z"></path>
      <path fill="#fff" style="fill: var(--color3, #fff)" d="M22.448 9.352l0.327-3.502h-17.761l0.981 10.737h12.257l-0.481 4.58-3.925 1.058-3.983-1.154-0.212-2.732h-3.522l0.481 5.58 7.235 2.020 7.293-2.020 0.981-10.891h-12.873l-0.366-3.675z"></path>
    </symbol>   
    <symbol id="icon-instagram" viewBox="0 0 32 32">
      <path d="M31.969 9.408c-0.075-1.7-0.35-2.869-0.744-3.882-0.406-1.075-1.031-2.038-1.85-2.838-0.8-0.813-1.769-1.444-2.832-1.844-1.019-0.394-2.182-0.669-3.882-0.744-1.713-0.081-2.257-0.1-6.601-0.1s-4.888 0.019-6.595 0.094c-1.7 0.075-2.869 0.35-3.882 0.744-1.075 0.406-2.038 1.031-2.838 1.85-0.813 0.8-1.444 1.769-1.844 2.832-0.394 1.019-0.669 2.182-0.744 3.882-0.081 1.713-0.1 2.257-0.1 6.601s0.019 4.888 0.094 6.595c0.075 1.7 0.35 2.869 0.744 3.882 0.406 1.075 1.038 2.038 1.85 2.838 0.8 0.813 1.769 1.444 2.832 1.844 1.019 0.394 2.182 0.669 3.882 0.744 1.706 0.075 2.25 0.094 6.595 0.094s4.888-0.018 6.595-0.094c1.7-0.075 2.869-0.35 3.882-0.744 2.151-0.831 3.851-2.532 4.682-4.682 0.394-1.019 0.669-2.182 0.744-3.882 0.075-1.707 0.094-2.251 0.094-6.595s-0.006-4.888-0.081-6.595zM29.087 22.473c-0.069 1.563-0.331 2.407-0.55 2.969-0.538 1.394-1.644 2.501-3.038 3.038-0.563 0.219-1.413 0.481-2.969 0.55-1.688 0.075-2.194 0.094-6.464 0.094s-4.782-0.018-6.464-0.094c-1.563-0.069-2.407-0.331-2.969-0.55-0.694-0.256-1.325-0.663-1.838-1.194-0.531-0.519-0.938-1.144-1.194-1.838-0.219-0.563-0.481-1.413-0.55-2.969-0.075-1.688-0.094-2.194-0.094-6.464s0.019-4.782 0.094-6.464c0.069-1.563 0.331-2.407 0.55-2.969 0.256-0.694 0.663-1.325 1.2-1.838 0.519-0.531 1.144-0.938 1.838-1.194 0.563-0.219 1.413-0.481 2.969-0.55 1.688-0.075 2.194-0.094 6.464-0.094 4.276 0 4.782 0.019 6.464 0.094 1.563 0.069 2.407 0.331 2.969 0.55 0.694 0.256 1.325 0.662 1.838 1.194 0.531 0.519 0.938 1.144 1.194 1.838 0.219 0.563 0.481 1.413 0.55 2.969 0.075 1.688 0.094 2.194 0.094 6.464s-0.019 4.77-0.094 6.457z"></path>
      <path d="M16.059 7.782c-4.538 0-8.22 3.682-8.22 8.22s3.682 8.22 8.22 8.22c4.538 0 8.22-3.682 8.22-8.22s-3.682-8.22-8.22-8.22zM16.059 21.335c-2.944 0-5.332-2.388-5.332-5.332s2.388-5.332 5.332-5.332c2.944 0 5.332 2.388 5.332 5.332s-2.388 5.332-5.332 5.332z"></path>
      <path d="M26.524 7.457c0 1.060-0.859 1.919-1.919 1.919s-1.919-0.859-1.919-1.919c0-1.060 0.859-1.919 1.919-1.919s1.919 0.859 1.919 1.919z"></path>
    </symbol>
    <symbol id="icon-facebook" viewBox="0 0 32 32">
      <path d="M21.329 5.313h2.921v-5.088c-0.504-0.069-2.237-0.225-4.256-0.225-4.212 0-7.097 2.649-7.097 7.519v4.481h-4.648v5.688h4.648v14.312h5.699v-14.311h4.46l0.708-5.688h-5.169v-3.919c0.001-1.644 0.444-2.769 2.735-2.769z"></path>
    </symbol>
    <symbol id="icon-linkedin" viewBox="0 0 32 32">
      <path d="M31.992 32v-0.001h0.008v-11.736c0-5.741-1.236-10.164-7.948-10.164-3.227 0-5.392 1.771-6.276 3.449h-0.093v-2.913h-6.364v21.364h6.627v-10.579c0-2.785 0.528-5.479 3.977-5.479 3.399 0 3.449 3.179 3.449 5.657v10.401h6.62z"></path>
      <path d="M0.528 10.636h6.635v21.364h-6.635v-21.364z"></path>
      <path d="M3.843-0c-2.121 0-3.843 1.721-3.843 3.843s1.721 3.879 3.843 3.879c2.121 0 3.843-1.757 3.843-3.879-0.001-2.121-1.723-3.843-3.843-3.843v0z"></path>
   </symbol>
   <symbol id="icon-up" viewBox="0 0 32 32">
     <path d="M16 9.333c0.354 0 0.693 0.14 0.943 0.391l9.333 9.333c0.521 0.521 0.521 1.365 0 1.886s-1.365 0.521-1.886 0l-8.391-8.391-8.391 8.391c-0.521 0.521-1.365 0.521-1.886 0s-0.521-1.365 0-1.886l9.333-9.333c0.25-0.25 0.589-0.391 0.943-0.391z"></path>
   </symbol>
  </defs>
</svg>